<?xml version="1.0" encoding="utf-8"?>
<!-- Generator: Adobe Illustrator 17.0.0, SVG Export Plug-In . SVG Version: 6.00 Build 0)  -->
<!DOCTYPE svg PUBLIC "-//W3C//DTD SVG 1.1//EN" "http://www.w3.org/Graphics/SVG/1.1/DTD/svg11.dtd">
<svg version="1.1" id="Layer_1" xmlns="http://www.w3.org/2000/svg" xmlns:xlink="http://www.w3.org/1999/xlink" x="0px" y="0px"
	 width="64px" height="45.25px" viewBox="0 0 64 45.25" enable-background="new 0 0 64 45.25" xml:space="preserve">
<g>
	<linearGradient id="SVGID_1_" gradientUnits="userSpaceOnUse" x1="22.868" y1="-167.3745" x2="59.868" y2="-129.6245">
		<stop  offset="0" style="stop-color:#FFFFFF"/>
		<stop  offset="1" style="stop-color:#FFFFFF"/>
	</linearGradient>
	<path fill="url(#SVGID_1_)" stroke="#000000" stroke-miterlimit="10" d="M23.894-145.758c0.335,2.367,0.993,4.137,1.974,5.309
		c1.795,2.133,4.87,3.199,9.225,3.199c2.608,0,4.727-0.281,6.354-0.844c3.087-1.078,4.631-3.082,4.631-6.012
		c0-1.711-0.756-3.035-2.268-3.973c-1.513-0.914-3.911-1.723-7.195-2.426l-5.61-1.23c-5.514-1.219-9.302-2.543-11.364-3.973
		c-3.493-2.391-5.238-6.129-5.238-11.215c0-4.641,1.708-8.496,5.125-11.566c3.417-3.07,8.435-4.605,15.055-4.605
		c5.528,0,10.243,1.447,14.146,4.342c3.903,2.895,5.949,7.096,6.139,12.604H44.46c-0.192-3.117-1.586-5.332-4.181-6.645
		c-1.73-0.867-3.88-1.301-6.451-1.301c-2.86,0-5.143,0.563-6.849,1.688s-2.559,2.695-2.559,4.711c0,1.852,0.841,3.234,2.523,4.148
		c1.081,0.61,3.375,1.324,6.885,2.145l9.094,2.145c3.986,0.938,6.973,2.191,8.963,3.762c3.088,2.438,4.633,5.965,4.633,10.582
		c0,4.734-1.83,8.666-5.49,11.795s-8.831,4.693-15.511,4.693c-6.822,0-12.188-1.541-16.097-4.623
		c-3.909-3.082-5.863-7.318-5.863-12.709H23.894z"/>
	<linearGradient id="SVGID_2_" gradientUnits="userSpaceOnUse" x1="44.6377" y1="-188.7116" x2="81.6377" y2="-150.9616">
		<stop  offset="0" style="stop-color:#FFFFFF"/>
		<stop  offset="1" style="stop-color:#FFFFFF"/>
	</linearGradient>
	<path fill="url(#SVGID_2_)" stroke="#000000" stroke-miterlimit="10" d="M84.749-166.743c1.148,0.892,2.32,2.359,3.516,4.4v-5.669
		h9.668v53.438h-9.914v-19.934c-0.75,1.547-2.034,2.924-3.85,4.131c-1.816,1.207-4.295,1.811-7.436,1.811
		c-4.43,0-8.204-1.771-11.32-5.313c-3.117-3.543-4.676-8.27-4.676-14.181c0-6.381,1.564-11.483,4.693-15.307
		c3.129-3.823,6.99-5.735,11.584-5.735C80.202-169.102,82.78-168.315,84.749-166.743z M86.891-141.581
		c0.939-1.947,1.409-4.412,1.409-7.395c0-2.347-0.399-4.447-1.197-6.302c-1.433-3.333-3.946-5-7.54-5
		c-2.537,0-4.574,0.975-6.112,2.922c-1.538,1.949-2.307,4.906-2.307,8.874c0,2.652,0.352,4.823,1.057,6.514
		c1.315,3.216,3.758,4.823,7.328,4.823C82.981-137.145,85.435-138.623,86.891-141.581z"/>
	<linearGradient id="SVGID_3_" gradientUnits="userSpaceOnUse" x1="66.8918" y1="-210.5237" x2="103.8918" y2="-172.7737">
		<stop  offset="0" style="stop-color:#FFFFFF"/>
		<stop  offset="1" style="stop-color:#FFFFFF"/>
	</linearGradient>
	<path fill="url(#SVGID_3_)" stroke="#000000" stroke-miterlimit="10" d="M117.269-168.082v23.098c0,2.18,0.256,3.82,0.77,4.922
		c0.91,1.945,2.693,2.918,5.352,2.918c3.405,0,5.737-1.383,6.997-4.148c0.653-1.5,0.979-3.48,0.979-5.941v-20.848h10.16v38.32
		h-9.738v-5.414c-0.093,0.117-0.327,0.469-0.701,1.055s-0.818,1.102-1.332,1.547c-1.566,1.406-3.079,2.367-4.54,2.883
		s-3.173,0.773-5.136,0.773c-5.656,0-9.465-2.039-11.429-6.117c-1.099-2.25-1.647-5.566-1.647-9.949v-23.098H117.269z"/>
	<linearGradient id="SVGID_4_" gradientUnits="userSpaceOnUse" x1="86.2689" y1="-229.5158" x2="123.2689" y2="-191.7658">
		<stop  offset="0" style="stop-color:#FFFFFF"/>
		<stop  offset="1" style="stop-color:#FFFFFF"/>
	</linearGradient>
	<path fill="url(#SVGID_4_)" stroke="#000000" stroke-miterlimit="10" d="M166.443-153.071c1.865-0.234,3.199-0.527,4.002-0.879
		c1.439-0.609,2.16-1.559,2.16-2.848c0-1.57-0.553-2.654-1.657-3.252s-2.727-0.896-4.864-0.896c-2.399,0-4.099,0.586-5.096,1.758
		c-0.713,0.867-1.188,2.039-1.426,3.516h-9.668c0.211-3.352,1.153-6.105,2.825-8.262c2.66-3.375,7.226-5.063,13.7-5.063
		c4.214,0,7.956,0.832,11.228,2.496c3.272,1.665,4.908,4.805,4.908,9.422v17.578c0,1.219,0.023,2.695,0.07,4.43
		c0.07,1.313,0.27,2.203,0.598,2.672s0.82,0.855,1.477,1.16v1.477H173.8c-0.305-0.773-0.516-1.5-0.633-2.18s-0.211-1.453-0.281-2.32
		c-1.391,1.5-2.994,2.777-4.809,3.832c-2.17,1.242-4.621,1.863-7.355,1.863c-3.49,0-6.372-0.99-8.646-2.971s-3.412-4.787-3.412-8.42
		c0-4.711,1.83-8.121,5.489-10.23c2.007-1.148,4.959-1.969,8.854-2.461L166.443-153.071z M172.57-148.395
		c-0.643,0.398-1.29,0.721-1.943,0.967s-1.55,0.475-2.689,0.686l-2.281,0.422c-2.139,0.375-3.674,0.832-4.605,1.371
		c-1.578,0.914-2.367,2.332-2.367,4.254c0,1.711,0.482,2.947,1.445,3.709c0.964,0.762,2.137,1.143,3.517,1.143
		c2.189,0,4.206-0.633,6.051-1.898s2.802-3.574,2.874-6.926V-148.395z"/>
	<linearGradient id="SVGID_5_" gradientUnits="userSpaceOnUse" x1="107.0449" y1="-249.879" x2="144.0449" y2="-212.129">
		<stop  offset="0" style="stop-color:#FFFFFF"/>
		<stop  offset="1" style="stop-color:#FFFFFF"/>
	</linearGradient>
	<path fill="url(#SVGID_5_)" stroke="#000000" stroke-miterlimit="10" d="M199.077-141.996c0.212,1.781,0.671,3.047,1.378,3.797
		c1.248,1.336,3.556,2.004,6.923,2.004c1.979,0,3.551-0.293,4.717-0.879c1.165-0.586,1.748-1.465,1.748-2.637
		c0-1.125-0.47-1.98-1.408-2.566c-0.939-0.586-4.434-1.594-10.482-3.023c-4.354-1.078-7.422-2.426-9.203-4.043
		c-1.781-1.594-2.672-3.891-2.672-6.891c0-3.539,1.392-6.58,4.175-9.123c2.783-2.543,6.7-3.814,11.75-3.814
		c4.791,0,8.696,0.955,11.714,2.865c3.019,1.911,4.751,5.209,5.197,9.896h-10.02c-0.142-1.289-0.506-2.309-1.093-3.059
		c-1.105-1.359-2.985-2.039-5.641-2.039c-2.186,0-3.742,0.34-4.671,1.02c-0.929,0.68-1.393,1.477-1.393,2.391
		c0,1.148,0.493,1.98,1.48,2.496c0.987,0.539,4.475,1.465,10.462,2.777c3.991,0.938,6.983,2.355,8.976,4.254
		c1.969,1.922,2.953,4.324,2.953,7.207c0,3.797-1.415,6.896-4.245,9.299s-7.204,3.604-13.121,3.604
		c-6.036,0-10.492-1.271-13.369-3.814s-4.315-5.783-4.315-9.721H199.077z"/>
	<linearGradient id="SVGID_6_" gradientUnits="userSpaceOnUse" x1="127.2767" y1="-269.7088" x2="164.2767" y2="-231.9588">
		<stop  offset="0" style="stop-color:#FFFFFF"/>
		<stop  offset="1" style="stop-color:#FFFFFF"/>
	</linearGradient>
	<path fill="url(#SVGID_6_)" stroke="#000000" stroke-miterlimit="10" d="M258.891-167.87c1.925,0.821,3.506,2.077,4.743,3.765
		c1.05,1.432,1.691,2.904,1.925,4.417s0.351,3.982,0.351,7.406v22.521h-10.23v-23.335c0-2.064-0.35-3.731-1.047-4.998
		c-0.907-1.783-2.629-2.675-5.165-2.675c-2.629,0-4.624,0.886-5.985,2.657c-1.361,1.771-2.041,4.3-2.041,7.585v20.766h-10.02
		v-51.645h10.02v18.281c1.447-2.227,3.121-3.779,5.023-4.658c1.901-0.879,3.902-1.318,6.003-1.318
		C254.824-169.102,256.965-168.691,258.891-167.87z"/>
</g>
<g>
	<path fill="#5DB425" d="M45.672,38.827c-4.214-0.312-6.354-0.876-7.203-1.597c-0.919,0.115-0.946,0.127-0.666,0.286
		c0.831,0.472,0.837,0.473-1.495,0.772c-0.449,0.058-0.947,0.108-1.463,0.147c-0.293,0.022-0.669,0.016-1.007,0.023
		c-0.037-0.015-0.073-0.03-0.11-0.044c0.193-0.034,0.354-0.075,0.584-0.1c0.676-0.071,1.377-0.136,2.072-0.203
		c1.095-0.104,1.225-0.153,0.88-0.356c-0.138-0.081-0.27-0.163-0.471-0.241c-0.595-0.229-0.161-0.415,0.9-0.567
		c0.461-0.066,0.492-0.13,0.449-0.221c-0.09-0.192-0.064-0.385-0.081-0.578c-0.006-0.069-0.001-0.138-0.001-0.218
		c-0.688,0.035-1.018,0.093-1.03,0.205c-0.015,0.145-0.077,0.291-0.189,0.435c-0.034,0.044-0.239,0.104-0.466,0.121
		c-1.152,0.085-2.335,0.158-3.513,0.233c-0.155,0.01-0.352,0.016-0.507,0.009c-0.253-0.011-0.488-0.033-0.731-0.051
		c0.183-0.029,0.335-0.073,0.554-0.085c0.977-0.054,1.963-0.105,2.964-0.146c0.537-0.022,0.797-0.072,0.84-0.153
		c0.069-0.131,0.199-0.263,0.122-0.392c-0.128-0.213,0.455-0.352,1.49-0.453c0.516-0.05,0.742-0.111,0.825-0.212
		c0.146-0.176,0.337-0.358,1.552-0.453c-0.139-0.017-0.191-0.029-0.253-0.031c-1.772-0.059-2.601-0.262-3.14-0.523
		c-0.144-0.069-0.553-0.138-0.951-0.176c-0.817-0.078-1.717-0.132-2.567-0.201c-0.313-0.025-0.583-0.065-0.873-0.098
		c0.026-0.019,0.053-0.038,0.079-0.057c0.434,0.003,0.925-0.013,1.29,0.014c0.855,0.065,1.618,0.162,2.476,0.226
		c1.048,0.078,1.468,0.219,1.819,0.381c0.087,0.04,0.424,0.077,0.696,0.093c0.4,0.023,0.845,0.026,1.338,0.039
		c0.444-0.224,1.131-0.426,2.445-0.551c0.068-0.007,0.114-0.021,0.156-0.033c0.438-0.125,0.873-0.25,1.455-0.417
		c-0.351-0.059-0.852-0.169-1.493-0.248c-1.411-0.174-2.127-0.405-2.272-0.684c-0.038-0.074,0.199-0.151,0.31-0.226
		c0.058,0,0.115,0,0.173,0c0.082,0.044,0.226,0.088,0.238,0.133c0.086,0.334,1.253,0.565,2.689,0.773
		c0.214,0.031,0.442,0.064,0.575,0.105c0.403,0.122,0.974,0.15,1.82,0.151c0.9,0.001,1.493-0.031,1.988-0.157
		c0.35-0.089,0.895-0.158,1.365-0.234c0.967-0.157,1.651-0.334,1.765-0.564c0.035-0.07,0.297-0.137,0.455-0.205
		c0.058,0,0.115,0,0.173,0c0.452,0.354-0.2,0.644-1.879,0.879c-0.679,0.095-1.289,0.203-1.726,0.273
		c0.588,0.169,1.019,0.295,1.462,0.42c0.069,0.019,0.174,0.038,0.29,0.05c1.218,0.124,1.869,0.312,2.278,0.536
		c0.518-0.013,1.038-0.016,1.518-0.041c0.241-0.012,0.521-0.058,0.591-0.098c0.686-0.389,2.839-0.479,4.726-0.621
		c0.214-0.016,0.561,0.016,0.846,0.025c0.072,0.02,0.144,0.039,0.217,0.059c-0.209,0.015-0.422,0.028-0.627,0.045
		c-0.31,0.025-0.599,0.058-0.921,0.077c-1.714,0.101-3.188,0.231-3.664,0.559c-0.299,0.207-1.577,0.24-2.772,0.316
		c1.331,0.129,1.481,0.338,1.688,0.546c0.041,0.041,0.332,0.085,0.575,0.11c1.129,0.117,1.677,0.266,1.638,0.5
		c-0.097,0.58,0.037,0.467,2.748,0.607c0.521,0.027,1.038,0.055,1.552,0.085c0.105,0.006,0.191,0.02,0.285,0.031
		c-0.317,0.111-0.864,0.095-1.289,0.071c-1.219-0.07-2.419-0.149-3.598-0.235c-0.222-0.016-0.41-0.079-0.446-0.123
		c-0.103-0.13-0.154-0.262-0.162-0.393c-0.007-0.114-0.168-0.204-1-0.239c-0.023,0.031-0.064,0.064-0.069,0.098
		c-0.041,0.258-0.091,0.517-0.095,0.775c-0.001,0.039,0.175,0.087,0.359,0.115c1.19,0.181,1.566,0.38,0.959,0.643
		c-0.928,0.402-0.858,0.406,1.341,0.625c0.442,0.044,0.902,0.084,1.315,0.135c0.178,0.022,0.259,0.065,0.384,0.098
		c-0.259,0.011-0.516,0.028-0.778,0.031c-0.153,0.001-0.324-0.018-0.47-0.032c-0.416-0.042-0.855-0.08-1.228-0.131
		c-2.368-0.322-2.382-0.175-1.543-0.743c0.195-0.132,0.22-0.234-0.559-0.323c-0.27,0.152-0.488,0.303-0.81,0.449
		c-1.158,0.522-3.278,0.906-6.325,1.153C46.248,38.827,45.96,38.827,45.672,38.827z"/>
</g>
<g>
	<linearGradient id="SVGID_7_" gradientUnits="userSpaceOnUse" x1="29.6987" y1="7.0594" x2="29.6987" y2="36.9828">
		<stop  offset="0.8374" style="stop-color:#FFFFFF"/>
		<stop  offset="1" style="stop-color:#FFFFFF"/>
	</linearGradient>
	<path fill="url(#SVGID_7_)" stroke="#000000" stroke-miterlimit="10" d="M24.939,32.257c-2.656,1.72-5.467,3.158-8.311,4.536
		c-0.668,0.323-0.902,0.257-1.315-0.376c-0.721-1.105-1.293-2.264-1.131-3.648c0.018-0.152,0.034-0.32-0.119-0.424
		c-0.736-0.5-1.144-1.291-1.72-1.933c-0.089-0.095-0.178-0.19-0.267-0.285c-0.135-0.204-0.269-0.408-0.404-0.612
		c-0.07-0.145-0.14-0.291-0.21-0.436c-0.836-1.448-1.44-2.989-1.841-4.609c-0.268-1.079,0.049-1.985,0.869-2.73
		c0.546-0.496,1.141-0.609,1.794-0.255c0.559,0.303,1.121,0.605,1.651,0.954c0.954,0.627,1.861,0.504,2.793-0.052
		c1.679-1.001,2.534-2.49,2.719-4.409c0.054-0.555,0.154-1.107,0.261-1.654c0.059-0.301-0.023-0.501-0.266-0.678
		c-0.275-0.201-0.519-0.444-0.79-0.65c-0.779-0.593-0.924-1.443-0.912-2.329c0.01-0.72,0.421-0.95,1-0.533
		c0.816,0.588,1.697,0.694,2.651,0.592c3.608-0.385,7.222-0.697,10.851-0.796c0.821-0.022,1.649-0.066,2.465,0.008
		c2.02,0.184,3.866-0.324,5.654-1.213c1.901-0.945,3.687-2.102,5.596-3.03c0.461-0.224,0.927-0.436,1.423-0.572
		c0.56-0.153,0.88-0.039,1.21,0.425c0.515,0.723,0.946,1.472,1.154,2.362c0.245,1.047,0.161,2.003-0.456,2.887
		c-1.414,2.024-2.858,4.024-4.76,5.635c-1.739,1.473-3.512,2.903-5.419,4.159c-0.248,0.146-0.495,0.292-0.675,0.525
		c-0.385,0.254-0.77,0.508-1.155,0.761c-0.221,0.053-0.408,0.172-0.589,0.303c-1.228,0.749-2.565,1.181-3.992,1.29
		c-1.5,0.115-1.171-0.11-2.662,1.287c-0.381,0.357-0.611,0.78-0.623,1.306c-0.02,0.863-0.432,1.5-1.12,1.985
		c-0.117,0.104-0.235,0.208-0.352,0.312c-0.728,0.48-1.457,0.961-2.185,1.441C25.444,31.885,25.195,32.078,24.939,32.257z"/>
</g>
</svg>
